<mxfile host="app.diagrams.net" modified="2024-02-06T00:56:49.944Z" agent="Mozilla/5.0 (Windows NT 10.0; Win64; x64) AppleWebKit/537.36 (KHTML, like Gecko) Chrome/121.0.0.0 Safari/537.36" etag="OXlqT92g-GUlOhmvrIHe" version="22.1.16" type="github">
  <diagram name="PÃ¡gina-1" id="EQxA5Od2Q3lQZ3v4GBOc">
    <mxGraphModel dx="1434" dy="746" grid="1" gridSize="10" guides="1" tooltips="1" connect="1" arrows="1" fold="1" page="1" pageScale="1" pageWidth="827" pageHeight="1169" math="0" shadow="0">
      <root>
        <mxCell id="0" />
        <mxCell id="1" parent="0" />
        <mxCell id="GFYhtWjBYcAE8isCYqtC-1" value="Investidor Mestre" style="rounded=1;whiteSpace=wrap;html=1;fillColor=#f8cecc;strokeColor=#b85450;shadow=1;" parent="1" vertex="1">
          <mxGeometry x="40" y="40" width="120" height="60" as="geometry" />
        </mxCell>
        <mxCell id="GFYhtWjBYcAE8isCYqtC-2" value="Scala" style="rounded=1;whiteSpace=wrap;html=1;fillColor=#ffe6cc;strokeColor=#d79b00;shadow=1;" parent="1" vertex="1">
          <mxGeometry x="354" y="40" width="120" height="60" as="geometry" />
        </mxCell>
        <mxCell id="GFYhtWjBYcAE8isCYqtC-3" value="Rust" style="rounded=1;whiteSpace=wrap;html=1;fillColor=#e3c800;strokeColor=#B09500;shadow=1;fontColor=#000000;" parent="1" vertex="1">
          <mxGeometry x="200" y="40" width="120" height="60" as="geometry" />
        </mxCell>
        <mxCell id="GFYhtWjBYcAE8isCYqtC-4" value="Kubernetes" style="rounded=1;whiteSpace=wrap;html=1;fillColor=#dae8fc;strokeColor=#6c8ebf;shadow=1;" parent="1" vertex="1">
          <mxGeometry x="510" y="40" width="120" height="60" as="geometry" />
        </mxCell>
        <mxCell id="GFYhtWjBYcAE8isCYqtC-5" value="AWS" style="rounded=1;whiteSpace=wrap;html=1;fillColor=#fff2cc;strokeColor=#d6b656;shadow=1;" parent="1" vertex="1">
          <mxGeometry x="660" y="40" width="120" height="60" as="geometry" />
        </mxCell>
        <mxCell id="GFYhtWjBYcAE8isCYqtC-18" style="edgeStyle=orthogonalEdgeStyle;rounded=0;orthogonalLoop=1;jettySize=auto;html=1;" parent="1" source="GFYhtWjBYcAE8isCYqtC-16" target="GFYhtWjBYcAE8isCYqtC-17" edge="1">
          <mxGeometry relative="1" as="geometry" />
        </mxCell>
        <UserObject label="AWS Expert" link="https://www.linuxtips.io/path-player?courseid=aws-expert&amp;unit=63a488d768e3faaa9d033308Unit" id="GFYhtWjBYcAE8isCYqtC-16">
          <mxCell style="rounded=1;whiteSpace=wrap;html=1;fillColor=#fff2cc;strokeColor=#d6b656;shadow=1;" parent="1" vertex="1">
            <mxGeometry x="200" y="380" width="120" height="60" as="geometry" />
          </mxCell>
        </UserObject>
        <UserObject label="Descomplicando Kubernetes" link="https://www.linuxtips.io/path-player?courseid=descomplicando-o-kubernetes-expert-mode&amp;unit=637c8f62a2320103c4014177Unit" id="GFYhtWjBYcAE8isCYqtC-17">
          <mxCell style="rounded=1;whiteSpace=wrap;html=1;fillColor=#dae8fc;strokeColor=#6c8ebf;shadow=1;" parent="1" vertex="1">
            <mxGeometry x="200" y="670" width="120" height="60" as="geometry" />
          </mxCell>
        </UserObject>
        <mxCell id="Cs_8O8fR8tiA5AmXbRs4-8" style="edgeStyle=orthogonalEdgeStyle;rounded=0;orthogonalLoop=1;jettySize=auto;html=1;" edge="1" parent="1" source="GFYhtWjBYcAE8isCYqtC-19" target="Cs_8O8fR8tiA5AmXbRs4-6">
          <mxGeometry relative="1" as="geometry" />
        </mxCell>
        <mxCell id="Cs_8O8fR8tiA5AmXbRs4-10" style="edgeStyle=orthogonalEdgeStyle;rounded=0;orthogonalLoop=1;jettySize=auto;html=1;" edge="1" parent="1" source="GFYhtWjBYcAE8isCYqtC-19" target="Cs_8O8fR8tiA5AmXbRs4-9">
          <mxGeometry relative="1" as="geometry" />
        </mxCell>
        <mxCell id="Cs_8O8fR8tiA5AmXbRs4-12" style="edgeStyle=orthogonalEdgeStyle;rounded=0;orthogonalLoop=1;jettySize=auto;html=1;" edge="1" parent="1" source="GFYhtWjBYcAE8isCYqtC-19" target="Cs_8O8fR8tiA5AmXbRs4-11">
          <mxGeometry relative="1" as="geometry" />
        </mxCell>
        <UserObject label="Rust Roadmap" link="https://roadmap.sh/rust" id="GFYhtWjBYcAE8isCYqtC-19">
          <mxCell style="rounded=1;whiteSpace=wrap;html=1;fillColor=#e3c800;strokeColor=#B09500;shadow=1;fontColor=#000000;" parent="1" vertex="1">
            <mxGeometry x="490" y="380" width="120" height="60" as="geometry" />
          </mxCell>
        </UserObject>
        <mxCell id="GFYhtWjBYcAE8isCYqtC-20" value="Havard" style="rounded=1;whiteSpace=wrap;html=1;fillColor=#f0a30a;strokeColor=#BD7000;shadow=1;fontColor=#000000;" parent="1" vertex="1">
          <mxGeometry x="840" y="40" width="120" height="60" as="geometry" />
        </mxCell>
        <mxCell id="Cs_8O8fR8tiA5AmXbRs4-4" style="edgeStyle=orthogonalEdgeStyle;rounded=0;orthogonalLoop=1;jettySize=auto;html=1;" edge="1" parent="1" source="GFYhtWjBYcAE8isCYqtC-24" target="GFYhtWjBYcAE8isCYqtC-19">
          <mxGeometry relative="1" as="geometry" />
        </mxCell>
        <mxCell id="Cs_8O8fR8tiA5AmXbRs4-5" style="edgeStyle=orthogonalEdgeStyle;rounded=0;orthogonalLoop=1;jettySize=auto;html=1;" edge="1" parent="1" source="GFYhtWjBYcAE8isCYqtC-24" target="GFYhtWjBYcAE8isCYqtC-16">
          <mxGeometry relative="1" as="geometry" />
        </mxCell>
        <mxCell id="Cs_8O8fR8tiA5AmXbRs4-14" style="edgeStyle=orthogonalEdgeStyle;rounded=0;orthogonalLoop=1;jettySize=auto;html=1;" edge="1" parent="1" source="GFYhtWjBYcAE8isCYqtC-24" target="Cs_8O8fR8tiA5AmXbRs4-13">
          <mxGeometry relative="1" as="geometry" />
        </mxCell>
        <mxCell id="Cs_8O8fR8tiA5AmXbRs4-18" style="edgeStyle=orthogonalEdgeStyle;rounded=0;orthogonalLoop=1;jettySize=auto;html=1;" edge="1" parent="1" source="GFYhtWjBYcAE8isCYqtC-24" target="Cs_8O8fR8tiA5AmXbRs4-17">
          <mxGeometry relative="1" as="geometry" />
        </mxCell>
        <mxCell id="GFYhtWjBYcAE8isCYqtC-24" value="Inicio" style="ellipse;whiteSpace=wrap;html=1;aspect=fixed;" parent="1" vertex="1">
          <mxGeometry x="394" y="160" width="80" height="80" as="geometry" />
        </mxCell>
        <mxCell id="Cs_8O8fR8tiA5AmXbRs4-6" value="Livro de Rust" style="rounded=1;whiteSpace=wrap;html=1;fillColor=#e3c800;strokeColor=#B09500;shadow=1;fontColor=#000000;" vertex="1" parent="1">
          <mxGeometry x="340" y="660" width="120" height="60" as="geometry" />
        </mxCell>
        <mxCell id="Cs_8O8fR8tiA5AmXbRs4-9" value="Exercism" style="rounded=1;whiteSpace=wrap;html=1;fillColor=#e3c800;strokeColor=#B09500;shadow=1;fontColor=#000000;" vertex="1" parent="1">
          <mxGeometry x="490" y="660" width="120" height="60" as="geometry" />
        </mxCell>
        <mxCell id="Cs_8O8fR8tiA5AmXbRs4-11" value="Projeto 1: Qual?" style="rounded=1;whiteSpace=wrap;html=1;fillColor=#e3c800;strokeColor=#B09500;shadow=1;fontColor=#000000;" vertex="1" parent="1">
          <mxGeometry x="650" y="660" width="120" height="60" as="geometry" />
        </mxCell>
        <mxCell id="Cs_8O8fR8tiA5AmXbRs4-13" value="Investidor Mestre" style="rounded=1;whiteSpace=wrap;html=1;fillColor=#f8cecc;strokeColor=#b85450;shadow=1;" vertex="1" parent="1">
          <mxGeometry x="20" y="380" width="120" height="60" as="geometry" />
        </mxCell>
        <mxCell id="Cs_8O8fR8tiA5AmXbRs4-20" style="edgeStyle=orthogonalEdgeStyle;rounded=0;orthogonalLoop=1;jettySize=auto;html=1;" edge="1" parent="1" source="Cs_8O8fR8tiA5AmXbRs4-17" target="Cs_8O8fR8tiA5AmXbRs4-19">
          <mxGeometry relative="1" as="geometry" />
        </mxCell>
        <mxCell id="Cs_8O8fR8tiA5AmXbRs4-17" value="Havard" style="rounded=1;whiteSpace=wrap;html=1;fillColor=#f0a30a;strokeColor=#BD7000;shadow=1;fontColor=#000000;" vertex="1" parent="1">
          <mxGeometry x="860" y="380" width="120" height="60" as="geometry" />
        </mxCell>
        <mxCell id="Cs_8O8fR8tiA5AmXbRs4-19" value="Introduction To Computer Science And Programming" style="rounded=1;whiteSpace=wrap;html=1;fillColor=#f0a30a;strokeColor=#BD7000;shadow=1;fontColor=#000000;" vertex="1" parent="1">
          <mxGeometry x="860" y="540" width="120" height="60" as="geometry" />
        </mxCell>
      </root>
    </mxGraphModel>
  </diagram>
</mxfile>
